<?xml version="1.0" encoding="UTF-8"?><svg id="Layer_1" xmlns="http://www.w3.org/2000/svg" viewBox="0 0 2600 2600" width="100" height="100"><defs><style>.cls-1{fill:#1c0b04;}.cls-1,.cls-2,.cls-3,.cls-4,.cls-5{stroke-width:0px;}.cls-2{fill:#e53935;}.cls-3{fill:#010101;}.cls-4{fill:#feceb7;}.cls-5{fill:#424242;}</style></defs><path class="cls-2" d="M1282,0h40c14.65,1.43,29.32,2.4,44.05,1.79,35.56,2.37,71.07,5.2,106.45,9.79,73.48,9.55,145.78,24.73,216.29,47.38,313.63,100.75,556.59,291.98,728.46,572.78,77.55,126.71,129.95,263.71,159.21,409.43,11.09,55.23,19.87,110.77,21.89,167.2.09,2.61-.31,5.39,1.64,7.63v160c-1.86,7.26-2.48,14.62-1.7,22.09-.24,5.99-.2,12.01-.76,17.97-4.09,43.45-9.79,86.69-18.05,129.55-23.14,120.07-62.17,234.73-117.71,343.7-33.81,66.33-72.72,129.5-117.73,188.86-2.52-2.33-1.78-5.43-1.76-8.25.03-3.67-.79-7.06-2.28-10.35,6.21-5.97,12.11-12.3,18.69-17.81,7.8-6.52,9.17-14.78,6.5-23.48-4.58-14.93-8.42-30.15-14.71-44.5-2.43-5.55-4.41-11.19-5.43-17.09-1.49-8.59-3.91-16.94-7.25-24.89-6.33-15.08-7.67-30.82-7.74-46.86-.02-3.99.36-8.16-.65-11.93-5.17-19.35-6.9-39.23-10.13-58.87-3.72-22.6-6.58-45.36-11.29-67.84-5.61-26.72-11.89-53.2-20.2-79.22-6.79-21.28-14.52-42.18-23.8-62.48-7.73-16.92-15.62-33.77-25.02-49.86-5.53-9.47-10.73-19.14-16.2-28.65-8.12-14.12-16.11-28.23-25.94-41.4-8.75-11.72-18.25-22.88-26.48-35.01-6.73-9.92-14.17-19.33-23.13-27.44-3.96-3.58-7.13-7.71-9.78-12.48-3.25-5.83-8.31-10.41-14.04-13.96-18.07-11.19-36.47-21.87-54.27-33.47-19.63-12.8-41.67-20.64-62.26-31.44-21.46-11.26-46.15-15.05-66.79-28.33-.27-.17-.63-.21-.95-.31-12.37-3.86-23.33-11.35-36.23-13.9-2.9-.57-5.74-2-7.8-4.28-3.79-4.19-8.79-5.72-14.02-7.1-16.14-4.27-31.88-10.58-46.22-18.42-25.42-13.9-52.43-24.21-78.08-37.57-25.29-13.17-51.33-25.03-76.95-37.65-7.29-3.59-13.8-7.79-19.39-13.71-6.41-6.79-13.37-12.76-23.1-14.81-3.7-.78-6.94-3.8-10.37-5.83-2.57-1.52-4.94-3.92-7.69-4.47-10.2-2.04-18.35-7.5-26.12-13.97-4.05-3.37-8.78-4.54-13.93-2.49-1.2-.47-2.56-.72-3.56-1.46-14.46-10.69-27.65-22.73-38.58-37.07-2.04-2.67-2.79-6.16-2.57-9.5,1.1-17.01-2.82-33.79-2.14-50.78.54-13.67-2.42-27.11-3.17-40.69-.9-16.26-2.51-32.39-4.45-48.56-.98-8.17-2.23-16.43-2.44-24.77-.54-21.72,1.81-43.03,6.29-64.3,3.56-16.9,6.33-33.87,13.65-49.75,3.42-7.42,7.92-12.09,16.64-11.38,3.64.29,7.32.07,10.98.02,20.79-.29,36.66-18.92,31.7-38.77-2.66-10.66-3.03-20.74-1.32-31.44,2.47-15.45,4.01-31.25,10.78-45.44,6.72-14.09,5.73-28.42,4.59-43.01-1.4-17.96-6.86-35.22-9.24-53.01-.59-4.4-2.03-8.63-4.47-12.07-4.12-5.8-7.98-12.65-16.97-11.59.21-7.29.71-14.59.57-21.87-.61-30.22.75-60.37-3.36-90.65-3.76-27.66-7.85-55.17-13.58-82.45-.98-4.68-1.09-9.15.12-13.8,1.45-5.55,1.43-11.22-.18-16.77-5.21-17.96-7.14-36.46-9.05-54.95-.78-7.54-2.88-14.29-8.4-19.73-3.17-3.13-5.45-6.82-5.4-11.43.14-14.99-5.77-28.49-10.61-42.18-3.61-10.21-7.43-20.27-12.9-29.91-6.27-11.06-13.31-21.32-21.56-30.81-7.23-8.32-17.71-13.3-24.83-21.34-8.4-9.48-19.84-11.74-30.2-16.18-4.78-2.05-8.2-3.77-9.72-8.37-1.96-5.91-5.94-8.86-11.64-11.2-11.59-4.76-24-8.37-32.24-19.05-1.33-1.72-3.72-3.01-5.87-3.63-12.68-3.64-22.86-12.1-34.57-17.61-8.93-4.21-17.7-6.73-27.85-4.93-12.99,2.31-25.84,1.76-37.31-6.44-2.91-2.08-6.48-3.45-9.94-4.51-17.13-5.27-34.46-9.19-52.38-11.38-13.65-1.67-25.08.91-35.14,9.6-3.45,2.98-6.2,3.38-9.7,1.06-4.97-3.28-10.49-3.6-16.26-3.72-18.13-.39-35.55,4.45-53.32,6.76-1.89.25-3.88,1.21-5.43,2.37-10.51,7.85-22.78,11.9-34.69,16.88-7.94,3.33-15.82,4.48-24.26,4.13-10.89-.44-19.93,7.02-30.67,7.66-1.39.08-2.76,1.75-4.02,2.82-5.6,4.76-10.89,9.78-14.82,16.1-8.81,14.18-21.46,24.57-35.18,33.41-7.38,4.76-13.98,10.06-20.05,16.24-5.37,5.46-10.63,11.06-16.3,16.2-4.73,4.29-7.6,9.46-7.84,15.62-.29,7.66-3.75,13.28-9.36,17.96-4.74,3.96-8.64,8.94-9.73,14.78-1.42,7.6-4.18,14.56-6.82,21.71-6.34,17.15-8.81,35.35-13.94,52.84-.97,3.31.07,6.56.55,9.86,1.3,8.96,1.1,17.71-1.79,26.58-2.46,7.55-6.15,14.67-7.55,22.64-1.94,11-.31,22.75-6.78,32.86-.81,1.27-.63,3.23-.73,4.88-1.8,30.64,1.5,61.18,1.85,91.78.02,1.63.62,3.26.91,4.9,1.7,9.8,4.64,19.59,4.79,29.41.26,17.32,2.98,34.49,2.41,51.83-.11,3.28.64,6.61,1.2,9.88,1.91,11.1,5.44,21.92,4.53,33.49-.65,8.25-2.83,16.4-1.86,24.77-5.25,1.81-6.38,6.48-7.41,11.03-4.54,20.11-2.94,40.48-1.14,60.63,1.93,21.59,9.84,42.04,14.83,63.07,2.3,9.68,5.3,19.28,9.08,28.47,2.57,6.26,2.97,11.79,1.18,18.28-3.77,13.65,2.05,26.56,14.11,34.02,8.98,5.55,18.65,8.89,29.13,9.28,4.79.18,7.16,2.01,8.66,6.44,2.56,7.56,6.2,14.78,8.41,22.42,7.23,24.93,15.67,49.42,25.32,73.52,3.95,9.87,7.93,19.73,9.76,30.34,3.22,18.68,5.62,37.47,8.16,56.25,1.7,12.52,4.57,24.88,4.06,37.63-.39,9.72,1.54,19.2,2.99,28.73.55,3.61.89,7.25,1.16,10.9.93,12.6,1.35,25.26,2.85,37.79.82,6.81-.19,12.52-4.6,17.64-6.49,7.52-13.68,14.25-22.29,19.32-1.94-.23-3.6-1.86-5.74-1.13-13.89,4.69-28.09,8.79-37.95,20.84-3.81,4.65-8.04,8.84-12.7,12.68-11.49,9.47-25.07,16.47-33.98,29.01-1.95,2.74-5.15,4.15-8.14,5.65-20.18,10.11-40.23,20.45-58.41,34.01-1.32.99-2.86,1.71-4.38,2.4-16.43,7.44-31.62,16.93-46.35,27.28-7.05,4.95-14.13,10.55-22.08,13.33-11.64,4.07-21.04,10.96-30.58,18.21-6.58,5-13.34,10.85-21.39,12.42-8.88,1.73-16.56,5.33-23.43,10.44-21.25,15.83-47.38,22.5-69.05,37.45-1.32.91-3.25.89-4.67,1.69-6.93,3.95-15.42,4.92-21.49,10.25-4.33,3.81-9.05,6.65-14.05,9.32-15.49,8.27-31.62,15.6-46.13,25.35-15.16,10.19-32.45,16.79-46.44,28.81-9.07,7.79-19.01,14.62-27.74,22.76-12.9,12.03-25.11,24.82-37.52,37.36-2.56,2.59-4.93,5.43-7.06,8.38-12.28,16.97-23.09,34.84-33.51,53.02-14.42,25.17-25.88,51.71-37.86,78.03-5.25,11.53-8.28,23.92-13.34,35.42-6.46,14.68-10.66,30.05-15.59,45.17-5.33,16.39-9.22,33.24-13.93,49.83-2.83,9.98-2.7,20.39-5.22,30.47-8.24,33.03-10.15,67-14.17,100.66-1.58,13.28.1,26.66-1.47,39.9-2.82,23.8-4.15,47.7-5.27,71.6-.33,7.05-1.48,13.13-7.09,17.76-2.98-1.8-4.36-4.94-6.27-7.61-100.79-140.98-170.98-295.77-209.84-464.73-13.52-58.8-22.91-118.24-28.02-178.37-1.98-23.24-3.23-46.5-4.32-69.79,1.07-3.26.5-6.59.42-9.89-.55-21.24-.64-42.48-.11-63.73.12-4.95.96-9.94-.26-14.87,2.2-59.98,8.24-119.55,18.47-178.71,16.22-93.86,42.27-184.9,78.94-272.77,91.8-219.96,233.02-401.81,423.54-544.93,151.05-113.47,319.31-189.83,504.06-229.79,69.82-15.1,140.44-23.78,211.69-27.81,14.07.57,28.09-.19,42.07-1.75Z"/><path class="cls-5" d="M1382,2600h-160c-.46-2.27-2.34-1.87-3.88-2.01-6.62-.59-13.24-1.23-19.88-1.67-40.17-2.67-80.04-7.96-119.67-14.88-112.22-19.6-220.11-53.19-323.38-101.37-22.27-10.39-44.64-20.61-65.68-33.43-.04-17.84-.05-35.63-1.02-53.5-.87-15.91-9.43-27.82-14.66-41.45-.61-1.58-2.93-2.51-4.45-3.74-3.56-13.26-4.21-26.77-3.77-40.41.08-2.61.29-5.75-.96-7.78-4.76-7.74-5.38-16.9-9.59-24.97-5.5-10.55-8.56-22.22-7.33-34.61.62-6.26.16-12.62.39-18.92.13-3.64-.72-6.55-4.26-8.18.21-1.29.01-2.88.7-3.83,6.44-8.92,7.97-19.11,10.08-29.72,2.84-14.23-.05-26.95-6.51-38.35-9.75-17.2-14.3-34.84-12.14-54.35.04-.33-.05-.67.01-1,1.13-6.54-1.9-11.71-5.82-16.35-2.99-3.54-6.38-6.7-10.2-9.49-8.13-5.93-15.2-12.89-19.3-22.41-6.55-15.21-13.71-30.03-18.5-46.12-4.66-15.63-6.82-31.01-6.3-47.08.32-9.99-.51-20.08.6-29.96,1.7-15.13,5.24-30.02,5.68-45.35.16-5.71,2.5-11.29,5.76-15.67,4.72-6.35,7.45-13.46,9.3-20.74,4.07-16,12.2-30.19,19.18-44.84,2.57-5.39,5.72-10.45,6.73-16.39.97-5.69,3.38-10.74,5.94-15.8,3.61-7.13,7.45-14.18,10.52-21.54,4.87-11.67,13.56-21.33,17.35-33.53.27-.88,1.16-1.62,1.88-2.31,6.07-5.82,10.63-13.01,14.63-20.08,9.22-16.28,21.04-30.49,32.02-45.43,5.96-8.11,10.04-17.73,16.71-25.61,1.17-1.38,1.42-3.69,1.71-5.63.44-2.9,2.01-5.08,4.36-6.38,7.31-4.08,11.62-10.77,15.93-17.52,3.4-5.33,6.96-10.51,12.01-14.55,9.1-7.29,16.67-16.2,23.7-25.33,8.87-11.51,15.82-24.3,25.43-35.52,9.85-11.51,19.49-23.25,29.91-34.24,16.73-17.65,30.9-37.32,45.73-56.46,5.15-6.64,10.75-12.6,17.35-17.74,4.97-3.88,10.59-7.03,14.68-11.93,3.8-4.55,7.71-4.27,12.23-1.26,6.36,4.23,12.98,8.07,18.64,13.27,10.04,9.24,22.97,14.77,32.2,25.06,4.47,4.99,9.75,9.02,15.33,12.7,16.37,10.8,32.77,21.55,48.98,32.58,6.67,4.54,13.84,7.98,21.12,11.25,13.33,5.99,26.69,12.03,41.28,14.41,14.13,2.31,27.13,8.86,41.27,11.02,11.46,1.75,23,2.98,34.45,4.81,21.99,3.5,44.11,5.73,66.35,6.22,18.66.41,37.33.06,55.99.25,8.69.09,17.23-.62,25.77-2.25,8.13-1.56,16.36-2.65,24.54-3.97,18.08-2.9,35.84-7.64,53.02-13.54,18.45-6.34,35.97-15.42,53.85-23.39,8.87-3.96,16.44-10.08,24.54-15.3,22.06-14.2,44.38-27.97,64.42-45.16,7.06-6.05,12.83-13.79,20.99-18.29,9.35-5.15,16.37-12.74,22.74-20.7,9.59-11.98,21.74-21.54,30.77-33.96,2.73-3.76,6.12-3.88,9.44-1.07,7.35,6.23,15.74,11.03,22.86,17.69,8.21,7.68,16.37,15.55,26.03,21.61,9.81,6.15,19,13.15,27.94,20.6,12.5,10.42,24.95,20.91,36.86,31.98,10.97,10.19,22.8,19.32,33.89,29.31,9.63,8.68,19.44,17.1,29.31,25.49,6.06,5.15,11.8,10.7,16.16,17.58,10.54,16.64,24.4,30.61,37.42,45.2,7.76,8.69,15.38,17.42,22.14,26.9,8.46,11.87,17.74,23.12,25.87,35.27,4.84,7.23,9.4,14.47,12.62,22.56,3.95,9.91,8.88,19.34,14.23,28.56,2.17,3.74,5.03,7.4,5.97,11.47,3.23,13.89,12.05,25.08,17.42,37.92,10.65,25.44,22.89,50.24,30.09,77.02,4.05,15.04,8.23,30.08,10.11,45.59,1.63,13.49,3.36,27,4.09,40.55,1.17,21.68-1.5,43.18-6.39,64.22-4.91,21.14-12.1,41.66-26.68,58.43-7.82,9-12.02,19.76-17.06,30.19-1.19,2.46-1.86,4.99-1.74,7.71,1.04,23.64-1.85,47.18-1.89,70.79-.03,14.2,2.78,27.56,11.9,38.98.2,3.3.39,6.54,1.14,9.83,2.8,12.28,6.02,24.54,7.64,37,2.36,18.07,5.42,36.14,4.61,54.53-.13,2.93,1.05,5.89,1.3,8.86,1.34,15.87,2.3,31.76-.26,47.61-2.98,1.35-3,4.36-3.32,6.83-.55,4.26-.45,8.61-.62,12.92-.89,22.46-3.31,44.43-17.66,63.2-2.56,3.34-4.35,7.46-5.27,11.77-2.07,9.72-4.17,19.44-6.36,29.14-.74,3.3-.82,6.58-.49,9.91-1.93,1.29-3.77,2.73-5.79,3.86-108.06,60.38-222.38,104.56-343.04,132.26-67.84,15.57-136.53,25.43-205.98,30.12-2.03.14-4.83-1.13-5.94,2.03Z"/><path class="cls-4" d="M3.17,1344.25c-1.06-.08-2.12-.17-3.17-.25,0-29.33,0-58.67,0-88,1.07-.08,2.15-.16,3.22-.24,1.22,4.94.38,9.92.26,14.87-.53,21.25-.44,42.49.11,63.73.09,3.3.65,6.63-.42,9.89Z"/><path class="cls-4" d="M1366,0c0,.6.02,1.19.05,1.79-14.73.61-29.4-.36-44.05-1.79h44Z"/><path class="cls-4" d="M1239.93,1.75c.01-.58.04-1.17.07-1.75h42c-13.98,1.56-28,2.32-42.07,1.75Z"/><path class="cls-4" d="M2600,1398l-.85.1s-.85-.01-.85-.01c-.79-7.47-.17-14.82,1.7-22.09v22Z"/><path class="cls-3" d="M435.79,2268.27c-4.45-.51-6.29-4.54-9.09-7.09-62.56-56.86-118.96-119.33-169.26-187.28-2.15-2.9-4.97-5.43-5.83-9.16,5.61-4.63,6.77-10.71,7.1-17.76,1.12-23.91,2.45-47.81,5.27-71.6,1.57-13.24-.12-26.62,1.47-39.9,4.02-33.66,5.92-67.63,14.17-100.66,2.52-10.08,2.38-20.49,5.22-30.47,4.71-16.6,8.6-33.45,13.93-49.83,4.92-15.12,9.13-30.49,15.59-45.17,5.06-11.5,8.09-23.89,13.34-35.42,11.98-26.32,23.44-52.87,37.86-78.03,10.41-18.17,21.22-36.05,33.51-53.02,2.14-2.95,4.5-5.79,7.06-8.38,12.42-12.55,24.62-25.33,37.52-37.36,8.73-8.14,18.66-14.97,27.74-22.76,13.99-12.02,31.28-18.63,46.44-28.81,14.51-9.75,30.64-17.08,46.13-25.35,5-2.67,9.71-5.51,14.05-9.32,6.07-5.33,14.55-6.3,21.49-10.25,1.42-.81,3.35-.79,4.67-1.69,21.67-14.95,47.81-21.62,69.05-37.45,6.87-5.12,14.55-8.71,23.43-10.44,8.06-1.57,14.81-7.42,21.39-12.42,9.54-7.25,18.93-14.14,30.58-18.21,7.95-2.78,15.03-8.38,22.08-13.33,14.73-10.35,29.92-19.84,46.35-27.28,1.51-.69,3.06-1.41,4.38-2.4,18.18-13.56,38.22-23.9,58.41-34.01,2.99-1.5,6.2-2.91,8.14-5.65,8.91-12.54,22.49-19.54,33.98-29.01,4.66-3.84,8.89-8.03,12.7-12.68,9.86-12.04,24.06-16.15,37.95-20.84,2.14-.72,3.8.9,5.74,1.13-3.55,7.57-8.25,14.2-14.09,20.35-9.1,9.57-15.84,20.73-15.74,34.6.21,28.63,9.74,54.19,26.47,77.13,3.5,4.8,7.77,9.19,12.27,13.1,14.55,12.66,28.65,25.93,44.48,37,12.8,8.95,26.03,17.33,39.34,25.5,15.59,9.57,31.96,17.71,48.83,24.85,12.35,5.22,25.52,7.57,38.28,11.34,15.66,4.64,31.55,8.41,47.57,11.28,38.77,6.94,77.68,4.3,116.43-.48,26.9-3.32,52.84-11.11,78.06-20.74,15.78-6.02,32.55-10.58,46.12-21.19,8.73-6.82,18.22-12.26,27.72-17.64,11.72-6.63,21.88-15.3,31.54-24.23,19.07-17.63,37.26-36.24,55.32-54.92,9.97-10.31,18.54-21.82,23.28-35.72.85-2.5,2.06-4.94,3.51-7.15,5.97-9.08,7.95-19.65,10.69-29.79,3.78-13.98,1.4-28.51,1.94-42.8.59-15.45-4.13-28.82-15.11-39.85-2.57-2.59-5.47-4.97-5.99-8.94,5.16-2.05,9.89-.88,13.93,2.49,7.77,6.47,15.91,11.93,26.12,13.97,2.75.55,5.13,2.96,7.69,4.47,3.43,2.03,6.67,5.05,10.37,5.83,9.73,2.05,16.69,8.02,23.1,14.81,5.59,5.92,12.1,10.12,19.39,13.71,25.62,12.62,51.67,24.48,76.95,37.65,25.65,13.36,52.66,23.67,78.08,37.57,14.33,7.84,30.07,14.15,46.22,18.42,5.22,1.38,10.22,2.91,14.02,7.1,2.07,2.28,4.91,3.71,7.8,4.28,12.9,2.56,23.86,10.04,36.23,13.9.32.1.68.13.95.31,20.64,13.28,45.33,17.07,66.79,28.33,20.59,10.8,42.63,18.64,62.26,31.44,17.8,11.6,36.2,22.28,54.27,33.47,5.72,3.55,10.79,8.13,14.04,13.96,2.66,4.77,5.82,8.9,9.78,12.48,8.96,8.1,16.4,17.51,23.13,27.44,8.22,12.13,17.73,23.29,26.48,35.01,9.83,13.16,17.82,27.28,25.94,41.4,5.47,9.51,10.67,19.18,16.2,28.65,9.4,16.1,17.28,32.95,25.02,49.86,9.28,20.3,17.01,41.2,23.8,62.48,8.31,26.02,14.59,52.5,20.2,79.22,4.72,22.47,7.58,45.24,11.29,67.84,3.23,19.65,4.96,39.53,10.13,58.87,1.01,3.77.63,7.94.65,11.93.07,16.04,1.41,31.78,7.74,46.86,3.34,7.95,5.76,16.3,7.25,24.89,1.02,5.9,3,11.54,5.43,17.09,6.29,14.35,10.13,29.57,14.71,44.5,2.67,8.7,1.29,16.96-6.5,23.48-6.59,5.51-12.49,11.84-18.69,17.81-2.1.18-3.44,1.17-4.79,2.95-5.05,6.67-10.89,12.91-17.73,17.49-20.75,13.89-40.29,29.61-62.47,41.33-17.4,9.19-34.83,18.22-54.24,22.62-5.83,1.32-11.57,3.16-17.22,5.13-24.42,8.51-49.51,13.33-75.37,13.84-28.01.55-55.97-.76-83.9-2.64-10.98-.74-21.53-3.27-31.67-8.22-9.8-4.79-20.35-8.03-30.57-11.95-9.11-11.42-11.92-24.78-11.9-38.98.04-23.61,2.93-47.15,1.89-70.79-.12-2.72.56-5.25,1.74-7.71,5.04-10.42,9.23-21.19,17.06-30.19,14.58-16.76,21.77-37.29,26.68-58.43,4.89-21.04,7.55-42.54,6.39-64.22-.73-13.55-2.46-27.06-4.09-40.55-1.88-15.51-6.06-30.55-10.11-45.59-7.2-26.78-19.44-51.58-30.09-77.02-5.38-12.84-14.2-24.03-17.42-37.92-.94-4.07-3.8-7.73-5.97-11.47-5.35-9.22-10.28-18.65-14.23-28.56-3.22-8.09-7.79-15.33-12.62-22.56-8.12-12.15-17.41-23.4-25.87-35.27-6.76-9.48-14.38-18.21-22.14-26.9-13.02-14.59-26.88-28.56-37.42-45.2-4.36-6.88-10.1-12.42-16.16-17.58-9.87-8.39-19.68-16.82-29.31-25.49-11.09-9.99-22.93-19.12-33.89-29.31-11.91-11.06-24.35-21.56-36.86-31.98-8.94-7.45-18.13-14.45-27.94-20.6-9.66-6.06-17.82-13.93-26.03-21.61-7.12-6.66-15.5-11.46-22.86-17.69-3.32-2.81-6.71-2.69-9.44,1.07-9.02,12.42-21.18,21.98-30.77,33.96-6.37,7.96-13.39,15.55-22.74,20.7-8.16,4.5-13.93,12.23-20.99,18.29-20.04,17.19-42.36,30.96-64.42,45.16-8.1,5.22-15.67,11.34-24.54,15.3-17.89,7.97-35.4,17.05-53.85,23.39-17.18,5.9-34.94,10.64-53.02,13.54-8.18,1.31-16.4,2.41-24.54,3.97-8.53,1.63-17.08,2.34-25.77,2.25-18.66-.19-37.33.16-55.99-.25-22.25-.49-44.36-2.71-66.35-6.22-11.45-1.82-22.99-3.05-34.45-4.81-14.14-2.16-27.14-8.71-41.27-11.02-14.58-2.38-27.94-8.42-41.28-14.41-7.28-3.27-14.46-6.71-21.12-11.25-16.21-11.04-32.61-21.79-48.98-32.58-5.58-3.68-10.86-7.72-15.33-12.7-9.24-10.29-22.16-15.82-32.2-25.06-5.66-5.21-12.28-9.05-18.64-13.27-4.53-3.01-8.43-3.29-12.23,1.26-4.09,4.9-9.7,8.05-14.68,11.93-6.6,5.14-12.2,11.1-17.35,17.74-14.83,19.14-29,38.81-45.73,56.46-10.42,10.99-20.06,22.73-29.91,34.24-9.61,11.22-16.56,24.01-25.43,35.52-7.03,9.13-14.59,18.04-23.7,25.33-5.05,4.04-8.6,9.22-12.01,14.55-4.31,6.75-8.61,13.44-15.93,17.52-2.34,1.31-3.92,3.48-4.36,6.38-.29,1.94-.54,4.25-1.71,5.63-6.67,7.87-10.75,17.49-16.71,25.61-10.98,14.95-22.8,29.16-32.02,45.43-4,7.06-8.56,14.26-14.63,20.08-.72.69-1.6,1.43-1.88,2.31-3.79,12.21-12.48,21.86-17.35,33.53-3.07,7.36-6.91,14.41-10.52,21.54-2.56,5.06-4.97,10.11-5.94,15.8-1.01,5.94-4.16,11-6.73,16.39-6.98,14.66-15.1,28.84-19.18,44.84-1.85,7.28-4.58,14.39-9.3,20.74-3.26,4.39-5.6,9.96-5.76,15.67-.44,15.32-3.98,30.22-5.68,45.35-1.11,9.88-.28,19.97-.6,29.96-.51,16.07,1.64,31.45,6.3,47.08,4.8,16.09,11.96,30.9,18.5,46.12,4.1,9.52,11.17,16.47,19.3,22.41,3.82,2.79,7.21,5.95,10.2,9.49,3.92,4.64,6.96,9.81,5.82,16.35-.06.32.03.67-.01,1-2.15,19.51,2.39,37.15,12.14,54.35,6.46,11.4,9.35,24.12,6.51,38.35-2.11,10.6-3.65,20.79-10.08,29.72-.69.95-.49,2.54-.7,3.83-6.46,2.35-11.06,7.24-15.82,11.82-10.02,9.64-19.07,20.56-33.92,23.26-2.08.38-3.84,2.48-5.77,3.75-2.21,1.45-4.28,3.52-6.72,4.16-11.23,2.92-21.91,8-33.63,8.96-6.62.54-13.31.28-19.91.92-15.52,1.5-31.03,3.13-46.64,3.48-15.24.34-30.45-.19-45.65-1.14Z"/><path class="cls-4" d="M1579.22,1128.05c.52,3.97,3.42,6.36,5.99,8.94,10.98,11.03,15.7,24.41,15.11,39.85-.55,14.28,1.84,28.82-1.94,42.8-2.74,10.14-4.73,20.71-10.69,29.79-1.45,2.2-2.66,4.65-3.51,7.15-4.73,13.9-13.31,25.41-23.28,35.72-18.06,18.68-36.25,37.29-55.32,54.92-9.66,8.94-19.82,17.61-31.54,24.23-9.5,5.38-18.99,10.82-27.72,17.64-13.57,10.6-30.34,15.17-46.12,21.19-25.22,9.62-51.16,17.41-78.06,20.74-38.75,4.78-77.66,7.42-116.43.48-16.02-2.87-31.91-6.64-47.57-11.28-12.76-3.78-25.93-6.12-38.28-11.34-16.87-7.13-33.23-15.27-48.83-24.85-13.32-8.17-26.54-16.55-39.34-25.5-15.83-11.07-29.92-24.34-44.48-37-4.5-3.91-8.77-8.3-12.27-13.1-16.73-22.94-26.26-48.5-26.47-77.13-.1-13.87,6.64-25.03,15.74-34.6,5.84-6.15,10.54-12.78,14.09-20.35,8.62-5.07,15.81-11.79,22.29-19.32,4.41-5.12,5.42-10.83,4.6-17.64-1.5-12.53-1.92-25.19-2.85-37.79-.27-3.64-.61-7.29-1.16-10.9-1.45-9.53-3.38-19.01-2.99-28.73.51-12.75-2.37-25.12-4.06-37.63-2.54-18.78-4.94-37.57-8.16-56.25-1.83-10.61-5.81-20.47-9.76-30.34-9.65-24.1-18.09-48.59-25.32-73.52-2.22-7.64-5.86-14.86-8.41-22.42-1.5-4.43-3.87-6.27-8.66-6.44-10.49-.38-20.16-3.73-29.13-9.28-12.06-7.46-17.88-20.37-14.11-34.02,1.79-6.48,1.39-12.01-1.18-18.28-3.78-9.19-6.78-18.8-9.08-28.47-4.99-21.02-12.9-41.48-14.83-63.07-1.8-20.14-3.4-40.51,1.14-60.63,1.03-4.55,2.16-9.22,7.41-11.02,1.59,8.58,6.3,16.02,8.97,24.09,4.28,12.95,12.49,23.37,19.97,34.11,4.92,7.06,11.56,12.74,12.96,21.88.46,3.03,2.01,6.19,5.52,6.19,4.19,0,4.92-3.84,5.86-7.03.28-.94.28-1.97.39-2.96,2.69-23.46,4.49-46.96,4.12-70.61-.3-18.99-.07-37.99-.05-56.99,0-3-.46-6.16.31-8.96,3.86-14.08,6.24-28.7,11.12-42.29,4.51-12.56,5.11-24.4,3.29-37.11-1.41-9.85-3.11-19.67-2.88-29.75.31-13.99-.3-27.99-.14-41.98.13-11.37,2.19-22.44,5.77-33.32,3.65-11.07,10.96-19.57,17.77-28.63,9.89-13.18,21.89-24.15,34.15-34.86,5.23-4.57,11.48-7.96,18.56-9.4,2.24-.45,4.41-1.49,6.45-2.58,8.53-4.56,17.62-7.84,26.49-11.64,15.02-6.44,30.99-10.32,46.08-16.3,18.57-7.36,37.45-8.6,56.85-8.02,17.97.54,35.93,1.32,53.93.07,15.28-1.06,30.5-3.31,45.88-2.63,19.61.87,39.23,1.68,58.83,2.71,8.63.46,17.49.55,25.57,3.93,25.84,10.79,53.32,16.04,80.01,23.93,9.61,2.84,18.08,6.37,24.6,14.08,1.71,2.03,3.53,4.19,5.76,5.51,8.81,5.23,13.42,13.64,17.66,22.4,4.53,9.36,6.71,19.51,8.9,29.52,2.42,11.11,5.28,22.14,9.64,32.48,6.34,15.03,9.63,30.44,9.06,46.54-.47,13.38,1.86,26.53,2.04,39.83.03,2.37.62,4.63,1.88,6.66,4.42,7.09,7.22,14.99,11,22.35,11.57,22.51,17.52,46.67,22.82,71.1,1.55,7.16,2.37,14.42,2.35,21.81-.07,21.47,6.29,42.05,9.07,63.14.53,4.01,4.63,5.77,7.5,3.21,7.22-6.44,14.15-13.19,14.88-23.87.93-13.67,3.69-27.06,8.11-40,3.79-11.1,6.64-22.32,7.85-33.99.3-2.95,1.31-5.83,2-8.74,8.99-1.07,12.85,5.79,16.97,11.59,2.44,3.44,3.88,7.66,4.47,12.07,2.39,17.79,7.85,35.06,9.24,53.01,1.13,14.59,2.13,28.92-4.59,43.01-6.77,14.19-8.3,29.98-10.78,45.44-1.71,10.7-1.34,20.78,1.32,31.44,4.96,19.85-10.91,38.48-31.7,38.77-3.66.05-7.34.27-10.98-.02-8.73-.7-13.22,3.97-16.64,11.38-7.32,15.88-10.1,32.85-13.65,49.75-4.47,21.27-6.83,42.58-6.29,64.3.21,8.34,1.45,16.6,2.44,24.77,1.95,16.16,3.56,32.3,4.45,48.56.75,13.57,3.71,27.01,3.17,40.69-.68,16.99,3.24,33.77,2.14,50.78-.22,3.34.53,6.82,2.57,9.5,10.93,14.34,24.12,26.38,38.58,37.07,1,.74,2.37.98,3.56,1.46Z"/><path class="cls-1" d="M1584.93,554.49c-.69,2.91-1.7,5.79-2,8.74-1.2,11.67-4.05,22.88-7.85,33.99-4.42,12.93-7.18,26.32-8.11,40-.73,10.68-7.66,17.43-14.88,23.87-2.87,2.56-6.97.8-7.5-3.21-2.78-21.09-9.14-41.67-9.07-63.14.02-7.39-.8-14.65-2.35-21.81-5.29-24.43-11.25-48.6-22.82-71.1-3.78-7.36-6.57-15.26-11-22.35-1.27-2.03-1.85-4.29-1.88-6.66-.19-13.3-2.52-26.45-2.04-39.83.57-16.11-2.72-31.51-9.06-46.54-4.36-10.34-7.22-21.37-9.64-32.48-2.18-10.01-4.36-20.16-8.9-29.52-4.24-8.76-8.85-17.17-17.66-22.4-2.23-1.32-4.05-3.48-5.76-5.51-6.51-7.71-14.98-11.23-24.6-14.08-26.69-7.89-54.17-13.14-80.01-23.93-8.08-3.38-16.94-3.47-25.57-3.93-19.6-1.04-39.22-1.84-58.83-2.71-15.38-.68-30.6,1.57-45.88,2.63-18,1.25-35.95.47-53.93-.07-19.4-.58-38.28.66-56.85,8.02-15.1,5.98-31.06,9.86-46.08,16.3-8.86,3.8-17.95,7.08-26.49,11.64-2.04,1.09-4.21,2.13-6.45,2.58-7.08,1.44-13.33,4.83-18.56,9.4-12.26,10.71-24.26,21.69-34.15,34.86-6.8,9.07-14.11,17.56-17.77,28.63-3.59,10.88-5.64,21.94-5.77,33.32-.16,13.99.45,28,.14,41.98-.22,10.08,1.47,19.9,2.88,29.75,1.82,12.71,1.22,24.55-3.29,37.11-4.88,13.59-7.26,28.21-11.12,42.29-.77,2.81-.31,5.97-.31,8.96-.02,19-.25,37.99.05,56.99.37,23.66-1.43,47.15-4.12,70.61-.11.99-.11,2.02-.39,2.96-.94,3.19-1.67,7.03-5.86,7.03-3.52,0-5.06-3.16-5.52-6.19-1.4-9.14-8.04-14.83-12.96-21.88-7.48-10.73-15.7-21.16-19.97-34.11-2.67-8.07-7.38-15.51-8.97-24.09-.97-8.38,1.21-16.53,1.86-24.78.91-11.57-2.62-22.39-4.53-33.49-.56-3.27-1.31-6.6-1.2-9.88.57-17.34-2.15-34.51-2.41-51.83-.15-9.83-3.09-19.61-4.79-29.41-.28-1.64-.89-3.26-.91-4.9-.36-30.6-3.66-61.14-1.85-91.78.1-1.65-.08-3.61.73-4.88,6.47-10.11,4.84-21.86,6.78-32.86,1.4-7.96,5.09-15.08,7.55-22.64,2.89-8.87,3.09-17.62,1.79-26.58-.48-3.3-1.52-6.55-.55-9.86,5.12-17.49,7.6-35.7,13.94-52.84,2.64-7.14,5.4-14.11,6.82-21.71,1.09-5.84,4.98-10.82,9.73-14.78,5.61-4.68,9.07-10.29,9.36-17.96.23-6.15,3.11-11.32,7.84-15.62,5.67-5.14,10.92-10.74,16.3-16.2,6.07-6.17,12.67-11.48,20.05-16.24,13.71-8.83,26.37-19.23,35.18-33.41,3.93-6.32,9.23-11.34,14.82-16.1,1.26-1.07,2.63-2.74,4.02-2.82,10.74-.63,19.78-8.1,30.67-7.66,8.43.34,16.32-.81,24.26-4.13,11.91-4.99,24.18-9.03,34.69-16.88,1.55-1.16,3.54-2.13,5.43-2.37,17.76-2.31,35.19-7.14,53.32-6.76,5.77.12,11.29.43,16.26,3.72,3.5,2.32,6.25,1.92,9.7-1.06,10.06-8.69,21.48-11.27,35.14-9.6,17.92,2.19,35.25,6.11,52.38,11.38,3.46,1.07,7.03,2.43,9.94,4.51,11.47,8.2,24.31,8.74,37.31,6.44,10.15-1.8,18.92.72,27.85,4.93,11.71,5.51,21.89,13.97,34.57,17.61,2.15.62,4.55,1.91,5.87,3.63,8.23,10.68,20.65,14.29,32.24,19.05,5.7,2.34,9.68,5.29,11.64,11.2,1.52,4.6,4.94,6.32,9.72,8.37,10.36,4.44,21.8,6.7,30.2,16.18,7.12,8.04,17.6,13.02,24.83,21.34,8.24,9.49,15.29,19.74,21.56,30.81,5.47,9.64,9.29,19.71,12.9,29.91,4.84,13.68,10.75,27.19,10.61,42.18-.04,4.61,2.23,8.3,5.4,11.43,5.52,5.44,7.62,12.19,8.4,19.73,1.91,18.49,3.84,36.99,9.05,54.95,1.61,5.55,1.63,11.22.18,16.77-1.21,4.65-1.1,9.12-.12,13.8,5.73,27.29,9.83,54.8,13.58,82.45,4.11,30.27,2.74,60.43,3.36,90.65.15,7.28-.36,14.58-.57,21.87Z"/><path class="cls-4" d="M1962.04,2140.13c10.22,3.92,20.78,7.16,30.57,11.95,10.14,4.96,20.69,7.49,31.67,8.22,27.93,1.88,55.89,3.19,83.9,2.64,25.86-.51,50.95-5.33,75.37-13.84,5.65-1.97,11.39-3.81,17.22-5.13,19.41-4.4,36.85-13.43,54.24-22.62,22.19-11.72,41.73-27.44,62.47-41.33,6.84-4.58,12.68-10.82,17.73-17.49,1.36-1.79,2.69-2.78,4.79-2.95,1.49,3.29,2.31,6.68,2.28,10.35-.02,2.82-.76,5.92,1.76,8.25-3.71,8.65-10.47,15.19-16.11,22.41-20.62,26.41-42.62,51.7-64.68,76.93-.22.25-.46.49-.69.72-12.27,12.64-24.01,25.83-36.54,38.15-31.01,30.48-62.89,60.03-96.56,87.68-37.25,30.58-75.99,59.04-116.12,85.65-2.76,1.83-5.33,4-8.78,4.46-4.12-15.35-9.17-30.43-13.1-45.86-4.33-16.96-9.95-33.59-15.01-50.36,2.55-15.86,1.6-31.74.26-47.61-.25-2.97-1.43-5.93-1.3-8.86.82-18.38-2.25-36.45-4.61-54.53-1.62-12.46-4.84-24.72-7.64-37-.75-3.29-.94-6.53-1.14-9.83Z"/><path class="cls-4" d="M435.79,2268.27c15.2.95,30.42,1.48,45.65,1.14,15.61-.34,31.11-1.98,46.64-3.48,6.61-.64,13.29-.38,19.91-.92,11.72-.96,22.39-6.04,33.63-8.96,2.44-.63,4.5-2.71,6.72-4.16,1.93-1.26,3.69-3.37,5.77-3.75,14.85-2.71,23.9-13.62,33.92-23.26,4.77-4.58,9.37-9.47,15.82-11.82,3.54,1.63,4.39,4.54,4.25,8.18-.23,6.31.23,12.66-.39,18.92-1.23,12.39,1.83,24.06,7.33,34.61,4.21,8.07,4.83,17.23,9.59,24.97,1.25,2.03,1.04,5.17.96,7.78-.44,13.64.21,27.16,3.77,40.41-1.34,2.39-1.44,5.07-1.86,7.68-3.88,24.18-5.93,48.66-11.84,72.5-9.29-3.03-16.88-9.17-25.13-14.04-39.81-23.53-77.79-49.84-114.65-77.7-27.01-20.43-53.11-42.04-78.31-64.71-1.03-.93-1.73-1.99-1.8-3.4Z"/><path class="cls-2" d="M1976.47,2297.96c5.06,16.77,10.68,33.4,15.01,50.36,3.94,15.43,8.98,30.5,13.1,45.86-19.79,13.87-40.57,26.13-61.84,37.56-.33-3.33-.25-6.61.49-9.91,2.19-9.7,4.29-19.42,6.36-29.14.92-4.32,2.71-8.43,5.27-11.77,14.36-18.77,16.77-40.74,17.66-63.2.17-4.31.07-8.66.62-12.92.32-2.47.34-5.48,3.32-6.83Z"/><path class="cls-2" d="M655.67,2428.13c5.91-23.85,7.97-48.32,11.84-72.5.42-2.62.52-5.3,1.86-7.68,1.53,1.24,3.85,2.16,4.46,3.75,5.23,13.64,13.8,25.54,14.66,41.45.97,17.87.99,35.66,1.02,53.5-11.75-5.31-22.86-11.79-33.84-18.51Z"/></svg>